<mxfile host="app.diagrams.net" modified="2023-10-25T20:00:25.190Z" agent="Mozilla/5.0 (Windows NT 10.0; Win64; x64) AppleWebKit/537.36 (KHTML, like Gecko) Chrome/118.0.0.0 Safari/537.36 Edg/118.0.2088.61" etag="JgGaE6aks240dIMvBljQ" version="22.0.8" type="device">
  <diagram name="Página-1" id="Ut6uybiw2Qm9uU2VXXvU">
    <mxGraphModel dx="1678" dy="893" grid="1" gridSize="10" guides="1" tooltips="1" connect="1" arrows="1" fold="1" page="1" pageScale="1" pageWidth="827" pageHeight="1169" math="0" shadow="0">
      <root>
        <mxCell id="0" />
        <mxCell id="1" parent="0" />
        <mxCell id="SK4YlKxa0iS34rnRj-Jt-60" style="edgeStyle=orthogonalEdgeStyle;rounded=0;orthogonalLoop=1;jettySize=auto;html=1;exitX=1;exitY=0.5;exitDx=0;exitDy=0;entryX=0;entryY=0.5;entryDx=0;entryDy=0;" edge="1" parent="1" source="SK4YlKxa0iS34rnRj-Jt-1" target="SK4YlKxa0iS34rnRj-Jt-3">
          <mxGeometry relative="1" as="geometry">
            <Array as="points">
              <mxPoint x="104" y="210" />
              <mxPoint x="104" y="290" />
            </Array>
          </mxGeometry>
        </mxCell>
        <mxCell id="SK4YlKxa0iS34rnRj-Jt-1" value="&lt;b&gt;&lt;font face=&quot;Times New Roman&quot;&gt;FrontEnd&lt;/font&gt;&lt;/b&gt;" style="rounded=1;whiteSpace=wrap;html=1;" vertex="1" parent="1">
          <mxGeometry x="20" y="190" width="70" height="40" as="geometry" />
        </mxCell>
        <mxCell id="SK4YlKxa0iS34rnRj-Jt-81" style="edgeStyle=orthogonalEdgeStyle;rounded=0;orthogonalLoop=1;jettySize=auto;html=1;exitX=1;exitY=0.5;exitDx=0;exitDy=0;" edge="1" parent="1" source="SK4YlKxa0iS34rnRj-Jt-2">
          <mxGeometry relative="1" as="geometry">
            <mxPoint x="755" y="370" as="targetPoint" />
          </mxGeometry>
        </mxCell>
        <mxCell id="SK4YlKxa0iS34rnRj-Jt-2" value="Sistema de Vendas de Ingressos" style="rounded=0;whiteSpace=wrap;html=1;fontFamily=Times New Roman;fontSize=22;" vertex="1" parent="1">
          <mxGeometry x="204" y="20" width="406" height="80" as="geometry" />
        </mxCell>
        <mxCell id="SK4YlKxa0iS34rnRj-Jt-41" style="edgeStyle=orthogonalEdgeStyle;rounded=0;orthogonalLoop=1;jettySize=auto;html=1;exitX=0.25;exitY=0;exitDx=0;exitDy=0;entryX=0;entryY=0.75;entryDx=0;entryDy=0;" edge="1" parent="1" source="SK4YlKxa0iS34rnRj-Jt-3" target="SK4YlKxa0iS34rnRj-Jt-2">
          <mxGeometry relative="1" as="geometry" />
        </mxCell>
        <mxCell id="SK4YlKxa0iS34rnRj-Jt-61" style="edgeStyle=orthogonalEdgeStyle;rounded=0;orthogonalLoop=1;jettySize=auto;html=1;exitX=1;exitY=0.5;exitDx=0;exitDy=0;entryX=0;entryY=0.5;entryDx=0;entryDy=0;" edge="1" parent="1" source="SK4YlKxa0iS34rnRj-Jt-3" target="SK4YlKxa0iS34rnRj-Jt-6">
          <mxGeometry relative="1" as="geometry">
            <Array as="points">
              <mxPoint x="210" y="290" />
              <mxPoint x="210" y="350" />
              <mxPoint x="170" y="350" />
              <mxPoint x="170" y="390" />
            </Array>
          </mxGeometry>
        </mxCell>
        <mxCell id="SK4YlKxa0iS34rnRj-Jt-3" value="&lt;font face=&quot;Times New Roman&quot;&gt;&lt;b&gt;Load Balancer&lt;/b&gt;&lt;/font&gt;" style="rounded=1;whiteSpace=wrap;html=1;" vertex="1" parent="1">
          <mxGeometry x="120" y="270" width="75.67" height="40" as="geometry" />
        </mxCell>
        <mxCell id="SK4YlKxa0iS34rnRj-Jt-66" style="edgeStyle=orthogonalEdgeStyle;rounded=0;orthogonalLoop=1;jettySize=auto;html=1;entryX=1;entryY=0.5;entryDx=0;entryDy=0;" edge="1" parent="1" target="SK4YlKxa0iS34rnRj-Jt-9">
          <mxGeometry relative="1" as="geometry">
            <mxPoint x="220" y="490" as="sourcePoint" />
          </mxGeometry>
        </mxCell>
        <mxCell id="SK4YlKxa0iS34rnRj-Jt-67" style="edgeStyle=orthogonalEdgeStyle;rounded=0;orthogonalLoop=1;jettySize=auto;html=1;entryX=0;entryY=0.5;entryDx=0;entryDy=0;" edge="1" parent="1">
          <mxGeometry relative="1" as="geometry">
            <mxPoint x="280" y="470" as="sourcePoint" />
            <mxPoint x="320" y="540" as="targetPoint" />
          </mxGeometry>
        </mxCell>
        <mxCell id="SK4YlKxa0iS34rnRj-Jt-68" style="edgeStyle=orthogonalEdgeStyle;rounded=0;orthogonalLoop=1;jettySize=auto;html=1;exitX=0.5;exitY=0;exitDx=0;exitDy=0;entryX=0.037;entryY=1.042;entryDx=0;entryDy=0;entryPerimeter=0;" edge="1" parent="1" source="SK4YlKxa0iS34rnRj-Jt-6" target="SK4YlKxa0iS34rnRj-Jt-2">
          <mxGeometry relative="1" as="geometry">
            <mxPoint x="219.75862068965512" y="110" as="targetPoint" />
          </mxGeometry>
        </mxCell>
        <mxCell id="SK4YlKxa0iS34rnRj-Jt-6" value="&lt;b&gt;&lt;font face=&quot;Times New Roman&quot;&gt;Servidores de Aplicativos&lt;/font&gt;&lt;/b&gt;" style="rounded=1;whiteSpace=wrap;html=1;" vertex="1" parent="1">
          <mxGeometry x="180" y="370" width="100" height="40" as="geometry" />
        </mxCell>
        <mxCell id="SK4YlKxa0iS34rnRj-Jt-73" style="edgeStyle=orthogonalEdgeStyle;rounded=0;orthogonalLoop=1;jettySize=auto;html=1;exitX=-0.008;exitY=0.445;exitDx=0;exitDy=0;entryX=1;entryY=0.75;entryDx=0;entryDy=0;exitPerimeter=0;" edge="1" parent="1" source="SK4YlKxa0iS34rnRj-Jt-82" target="SK4YlKxa0iS34rnRj-Jt-9">
          <mxGeometry relative="1" as="geometry">
            <mxPoint x="280" y="560" as="sourcePoint" />
          </mxGeometry>
        </mxCell>
        <mxCell id="SK4YlKxa0iS34rnRj-Jt-77" style="edgeStyle=orthogonalEdgeStyle;rounded=0;orthogonalLoop=1;jettySize=auto;html=1;exitX=0.5;exitY=1;exitDx=0;exitDy=0;entryX=0;entryY=0.5;entryDx=0;entryDy=0;" edge="1" parent="1" source="SK4YlKxa0iS34rnRj-Jt-9" target="SK4YlKxa0iS34rnRj-Jt-10">
          <mxGeometry relative="1" as="geometry" />
        </mxCell>
        <mxCell id="SK4YlKxa0iS34rnRj-Jt-9" value="&lt;b&gt;&lt;font face=&quot;Times New Roman&quot;&gt;Sistema de Filas&lt;/font&gt;&lt;/b&gt;" style="rounded=1;whiteSpace=wrap;html=1;" vertex="1" parent="1">
          <mxGeometry x="70" y="530" width="110" height="40" as="geometry" />
        </mxCell>
        <mxCell id="SK4YlKxa0iS34rnRj-Jt-79" style="edgeStyle=orthogonalEdgeStyle;rounded=0;orthogonalLoop=1;jettySize=auto;html=1;exitX=0.5;exitY=1;exitDx=0;exitDy=0;entryX=0;entryY=0.5;entryDx=0;entryDy=0;" edge="1" parent="1" source="SK4YlKxa0iS34rnRj-Jt-10" target="SK4YlKxa0iS34rnRj-Jt-11">
          <mxGeometry relative="1" as="geometry" />
        </mxCell>
        <mxCell id="SK4YlKxa0iS34rnRj-Jt-10" value="&lt;b&gt;Sistema de Cache&lt;/b&gt;" style="rounded=1;whiteSpace=wrap;html=1;" vertex="1" parent="1">
          <mxGeometry x="390" y="610" width="80" height="50" as="geometry" />
        </mxCell>
        <mxCell id="SK4YlKxa0iS34rnRj-Jt-34" style="edgeStyle=orthogonalEdgeStyle;rounded=0;orthogonalLoop=1;jettySize=auto;html=1;exitX=0.5;exitY=0;exitDx=0;exitDy=0;entryX=0.841;entryY=0.997;entryDx=0;entryDy=0;entryPerimeter=0;" edge="1" parent="1" source="SK4YlKxa0iS34rnRj-Jt-11" target="SK4YlKxa0iS34rnRj-Jt-2">
          <mxGeometry relative="1" as="geometry">
            <mxPoint x="545.2758620689656" y="110" as="targetPoint" />
          </mxGeometry>
        </mxCell>
        <mxCell id="SK4YlKxa0iS34rnRj-Jt-80" style="edgeStyle=orthogonalEdgeStyle;rounded=0;orthogonalLoop=1;jettySize=auto;html=1;exitX=1;exitY=0.5;exitDx=0;exitDy=0;" edge="1" parent="1" source="SK4YlKxa0iS34rnRj-Jt-11" target="SK4YlKxa0iS34rnRj-Jt-16">
          <mxGeometry relative="1" as="geometry" />
        </mxCell>
        <mxCell id="SK4YlKxa0iS34rnRj-Jt-11" value="Sistema de Pagamentos" style="rounded=1;whiteSpace=wrap;html=1;fontFamily=Times New Roman;fontStyle=1" vertex="1" parent="1">
          <mxGeometry x="500" y="700" width="90" height="40" as="geometry" />
        </mxCell>
        <mxCell id="SK4YlKxa0iS34rnRj-Jt-16" value="&lt;b&gt;&lt;font face=&quot;Times New Roman&quot;&gt;Sistema de Notificações&lt;/font&gt;&lt;/b&gt;" style="rounded=1;whiteSpace=wrap;html=1;" vertex="1" parent="1">
          <mxGeometry x="620" y="620" width="90" height="40" as="geometry" />
        </mxCell>
        <mxCell id="SK4YlKxa0iS34rnRj-Jt-65" style="edgeStyle=orthogonalEdgeStyle;rounded=0;orthogonalLoop=1;jettySize=auto;html=1;exitX=0.5;exitY=0;exitDx=0;exitDy=0;entryX=0.5;entryY=1;entryDx=0;entryDy=0;" edge="1" parent="1" source="SK4YlKxa0iS34rnRj-Jt-21" target="SK4YlKxa0iS34rnRj-Jt-1">
          <mxGeometry relative="1" as="geometry" />
        </mxCell>
        <mxCell id="SK4YlKxa0iS34rnRj-Jt-21" value="&lt;br&gt;&lt;font face=&quot;Times New Roman&quot;&gt;&lt;b&gt;Cliente&lt;/b&gt;&lt;/font&gt;" style="shape=actor;whiteSpace=wrap;html=1;" vertex="1" parent="1">
          <mxGeometry x="30" y="780" width="50" height="50" as="geometry" />
        </mxCell>
        <mxCell id="SK4YlKxa0iS34rnRj-Jt-30" style="edgeStyle=orthogonalEdgeStyle;rounded=0;orthogonalLoop=1;jettySize=auto;html=1;exitX=0.5;exitY=0;exitDx=0;exitDy=0;entryX=0.48;entryY=1.049;entryDx=0;entryDy=0;entryPerimeter=0;" edge="1" parent="1" source="SK4YlKxa0iS34rnRj-Jt-9" target="SK4YlKxa0iS34rnRj-Jt-2">
          <mxGeometry relative="1" as="geometry">
            <Array as="points">
              <mxPoint x="145" y="520" />
              <mxPoint x="145" y="340" />
              <mxPoint x="399" y="340" />
            </Array>
          </mxGeometry>
        </mxCell>
        <mxCell id="SK4YlKxa0iS34rnRj-Jt-33" style="edgeStyle=orthogonalEdgeStyle;rounded=0;orthogonalLoop=1;jettySize=auto;html=1;exitX=0.5;exitY=0;exitDx=0;exitDy=0;entryX=0.669;entryY=0.997;entryDx=0;entryDy=0;entryPerimeter=0;" edge="1" parent="1" source="SK4YlKxa0iS34rnRj-Jt-10" target="SK4YlKxa0iS34rnRj-Jt-2">
          <mxGeometry relative="1" as="geometry" />
        </mxCell>
        <mxCell id="SK4YlKxa0iS34rnRj-Jt-36" style="edgeStyle=orthogonalEdgeStyle;rounded=0;orthogonalLoop=1;jettySize=auto;html=1;exitX=0.5;exitY=0;exitDx=0;exitDy=0;entryX=0.931;entryY=1.04;entryDx=0;entryDy=0;entryPerimeter=0;" edge="1" parent="1" source="SK4YlKxa0iS34rnRj-Jt-16" target="SK4YlKxa0iS34rnRj-Jt-2">
          <mxGeometry relative="1" as="geometry" />
        </mxCell>
        <mxCell id="SK4YlKxa0iS34rnRj-Jt-40" style="edgeStyle=orthogonalEdgeStyle;rounded=0;orthogonalLoop=1;jettySize=auto;html=1;exitX=0.25;exitY=0;exitDx=0;exitDy=0;entryX=0;entryY=0.445;entryDx=0;entryDy=0;entryPerimeter=0;" edge="1" parent="1" source="SK4YlKxa0iS34rnRj-Jt-1" target="SK4YlKxa0iS34rnRj-Jt-2">
          <mxGeometry relative="1" as="geometry" />
        </mxCell>
        <mxCell id="SK4YlKxa0iS34rnRj-Jt-69" style="edgeStyle=orthogonalEdgeStyle;rounded=0;orthogonalLoop=1;jettySize=auto;html=1;exitX=0.5;exitY=0;exitDx=0;exitDy=0;entryX=0.312;entryY=1.063;entryDx=0;entryDy=0;entryPerimeter=0;" edge="1" parent="1" target="SK4YlKxa0iS34rnRj-Jt-2">
          <mxGeometry relative="1" as="geometry">
            <mxPoint x="350" y="530" as="sourcePoint" />
          </mxGeometry>
        </mxCell>
        <mxCell id="SK4YlKxa0iS34rnRj-Jt-70" value="&lt;b&gt;&lt;font face=&quot;Times New Roman&quot;&gt;Sistema de Autenticacão&lt;/font&gt;&lt;/b&gt;" style="strokeWidth=2;html=1;shape=mxgraph.flowchart.decision;whiteSpace=wrap;" vertex="1" parent="1">
          <mxGeometry x="180" y="440" width="100" height="80" as="geometry" />
        </mxCell>
        <mxCell id="SK4YlKxa0iS34rnRj-Jt-71" style="edgeStyle=orthogonalEdgeStyle;rounded=0;orthogonalLoop=1;jettySize=auto;html=1;exitX=0.5;exitY=1;exitDx=0;exitDy=0;entryX=0.5;entryY=0;entryDx=0;entryDy=0;entryPerimeter=0;" edge="1" parent="1" source="SK4YlKxa0iS34rnRj-Jt-6" target="SK4YlKxa0iS34rnRj-Jt-70">
          <mxGeometry relative="1" as="geometry" />
        </mxCell>
        <mxCell id="SK4YlKxa0iS34rnRj-Jt-82" value="&lt;b style=&quot;border-color: var(--border-color); font-family: &amp;quot;Times New Roman&amp;quot;;&quot;&gt;&lt;br&gt;Banco de Dados de Ingressos&lt;/b&gt;" style="strokeWidth=2;html=1;shape=mxgraph.flowchart.database;whiteSpace=wrap;" vertex="1" parent="1">
          <mxGeometry x="290" y="530" width="70" height="70" as="geometry" />
        </mxCell>
        <mxCell id="SK4YlKxa0iS34rnRj-Jt-83" value="&lt;font face=&quot;Times New Roman&quot;&gt;&lt;b&gt;Emissão do Ingresso&lt;/b&gt;&lt;/font&gt;" style="strokeWidth=2;html=1;shape=mxgraph.flowchart.terminator;whiteSpace=wrap;" vertex="1" parent="1">
          <mxGeometry x="710" y="370" width="100" height="60" as="geometry" />
        </mxCell>
      </root>
    </mxGraphModel>
  </diagram>
</mxfile>
